HIERARCHY
ROOT Hips
{
	OFFSET 0.00 0.00 0.00
	CHANNELS 6 Xposition Yposition Zposition Yrotation Xrotation Zrotation
	JOINT Spine
	{
		OFFSET	0.0000	9.2263	1.5771
		CHANNELS 3 Xrotation Yrotation Zrotation
		JOINT Spine1
		{
			OFFSET	0.0000	16.2540	-0.1656
			CHANNELS 3 Xrotation Yrotation Zrotation
			JOINT Spine2
			{
				OFFSET	0.0000	13.6396	-1.2923
				CHANNELS 3 Xrotation Yrotation Zrotation
				JOINT Neck
				{
					OFFSET	0.0000	13.8774	-4.3542
					CHANNELS 3 Xrotation Yrotation Zrotation
					JOINT Neck1
					{
						OFFSET	0.0000	4.3400	0.9269
						CHANNELS 3 Xrotation Yrotation Zrotation
						JOINT Head
						{
							OFFSET	0.0000	4.0266	0.8585
							CHANNELS 3 Xrotation Yrotation Zrotation
							End Site
							{
								OFFSET 0.0000 23.0297 0.1231
							}
						}
					}
				}
				JOINT LeftShoulder
				{
					OFFSET	6.1442	10.1870	-3.7932
					CHANNELS 3 Zrotation Xrotation Yrotation
					JOINT LeftArm
					{
						OFFSET	12.3191	-1.1130	-1.7935
						CHANNELS 3 Zrotation Xrotation Yrotation
						JOINT LeftForeArm
						{
							OFFSET	27.6870	0.0000	0.0000
							CHANNELS 3 Xrotation Zrotation Yrotation
							JOINT LeftHand
							{
								OFFSET	27.8738	0.0000	0.0000
								CHANNELS 3 Zrotation Yrotation Xrotation
								JOINT LeftHandThumb1
								{
									OFFSET	2.3785	-1.0029	2.6209
									CHANNELS 3 Zrotation Xrotation Yrotation
									JOINT LeftHandThumb2
									{
										OFFSET	3.3624	-1.0029	2.8398
										CHANNELS 3 Zrotation Xrotation Yrotation
										JOINT LeftHandThumb3
										{
											OFFSET	4.5018	-1.3445	2.1783
											CHANNELS 3 Zrotation Xrotation Yrotation
											End Site
											{
												OFFSET 2.6000 -1.0000 1.0000
											}
										}
									}
								}
								JOINT LeftHandMiddle1
								{
									OFFSET	10.4639	0.6148	0.4298
									CHANNELS 3 Zrotation Xrotation Yrotation
									JOINT LeftHandMiddle2
									{
										OFFSET	5.7921	0.0000	0.0000
										CHANNELS 3 Zrotation Xrotation Yrotation
										JOINT LeftHandMiddle3
										{
											OFFSET	3.7132	0.0000	0.0000
											CHANNELS 3 Zrotation Xrotation Yrotation
											End Site
											{
												OFFSET 2.3000 0.0000 0.0000
											}
										}
									}
								}
								JOINT LeftHandIndex1
								{
									OFFSET	10.3945	0.6148	2.7055
									CHANNELS 3 Zrotation Xrotation Yrotation
									JOINT LeftHandIndex2
									{
										OFFSET	5.5493	0.0000	0.0000
										CHANNELS 3 Zrotation Xrotation Yrotation
										JOINT LeftHandIndex3
										{
											OFFSET	3.3911	0.0000	0.0000
											CHANNELS 3 Zrotation Xrotation Yrotation
											End Site
											{
												OFFSET 2.5000 0.0000 0.0000
											}
										}
									}
								}
								JOINT LeftHandRing1
								{
									OFFSET	10.3252	0.3211	-1.8755
									CHANNELS 3 Zrotation Xrotation Yrotation
									JOINT LeftHandRing2
									{
										OFFSET	5.4452	0.0000	0.0000
										CHANNELS 3 Zrotation Xrotation Yrotation
										JOINT LeftHandRing3
										{
											OFFSET	3.7132	0.0000	0.0000
											CHANNELS 3 Zrotation Xrotation Yrotation
											End Site
											{
												OFFSET 2.0000 0.0000 0.0000
											}
										}
									}
								}
								JOINT LeftHandPinky1
								{
									OFFSET	10.0130	-0.0783	-3.9671
									CHANNELS 3 Zrotation Xrotation Yrotation
									JOINT LeftHandPinky2
									{
										OFFSET	3.6763	0.0000	0.0000
										CHANNELS 3 Zrotation Xrotation Yrotation
										JOINT LeftHandPinky3
										{
											OFFSET	2.8113	0.0000	0.0000
											CHANNELS 3 Zrotation Xrotation Yrotation
											End Site
											{
												OFFSET 2.9000 0.0000 0.0000
											}
										}
									}
								}
							}
						}
					}
				}
				JOINT RightShoulder
				{
					OFFSET	-6.1402	10.1870	-3.7932
					CHANNELS 3 Zrotation Xrotation Yrotation
					JOINT RightArm
					{
						OFFSET	-12.3231	-1.1130	-1.7935
						CHANNELS 3 Zrotation Xrotation Yrotation
						JOINT RightForeArm
						{
							OFFSET	-27.6870	0.0000	0.0000
							CHANNELS 3 Xrotation Zrotation Yrotation
							JOINT RightHand
							{
								OFFSET	-27.8738	0.0000	0.0000
								CHANNELS 3 Zrotation Yrotation Xrotation
								JOINT RightHandThumb1
								{
									OFFSET	-2.5178	-0.9367	2.5137
									CHANNELS 3 Zrotation Xrotation Yrotation
									JOINT RightHandThumb2
									{
										OFFSET	-3.2638	-1.0870	2.9669
										CHANNELS 3 Zrotation Xrotation Yrotation
										JOINT RightHandThumb3
										{
											OFFSET	-4.4165	-1.3703	2.1350
											CHANNELS 3 Zrotation Xrotation Yrotation
											End Site
											{
												OFFSET -2.6000 -1.0000 1.0000
											}
										}
									}
								}
								JOINT RightHandIndex1
								{
									OFFSET	-10.4665	0.4896	2.7120
									CHANNELS 3 Zrotation Xrotation Yrotation
									JOINT RightHandIndex2
									{
										OFFSET	-5.3768	0.0000	0.0000
										CHANNELS 3 Zrotation Xrotation Yrotation
										JOINT RightHandIndex3
										{
											OFFSET	-3.3855	0.0000	0.0000
											CHANNELS 3 Zrotation Xrotation Yrotation
											End Site
											{
												OFFSET -2.6000 0.0000 0.0000
											}
										}
									}
								}
								JOINT RightHandMiddle1
								{
									OFFSET	-10.7596	0.4896	0.4278
									CHANNELS 3 Zrotation Xrotation Yrotation
									JOINT RightHandMiddle2
									{
										OFFSET	-5.6168	0.0000	0.0000
										CHANNELS 3 Zrotation Xrotation Yrotation
										JOINT RightHandMiddle3
										{
											OFFSET	-3.7364	0.0000	0.0000
											CHANNELS 3 Zrotation Xrotation Yrotation
											End Site
											{
												OFFSET -2.3000 0.0000 0.0000
											}
										}
									}
								}
								JOINT RightHandRing1
								{
									OFFSET	-10.4702	0.3879	-1.9363
									CHANNELS 3 Zrotation Xrotation Yrotation
									JOINT RightHandRing2
									{
										OFFSET	-5.4013	0.0000	0.0000
										CHANNELS 3 Zrotation Xrotation Yrotation
										JOINT RightHandRing3
										{
											OFFSET	-3.3916	0.0000	0.0000
											CHANNELS 3 Zrotation Xrotation Yrotation
											End Site
											{
												OFFSET -2.2000 0.0000 0.0000
											}
										}
									}
								}
								JOINT RightHandPinky1
								{
									OFFSET	-9.9715	-0.1191	-3.9540
									CHANNELS 3 Zrotation Xrotation Yrotation
									JOINT RightHandPinky2
									{
										OFFSET	-3.6528	0.0000	0.0000
										CHANNELS 3 Zrotation Xrotation Yrotation
										JOINT RightHandPinky3
										{
											OFFSET	-2.7820	0.0000	0.0000
											CHANNELS 3 Zrotation Xrotation Yrotation
											End Site
											{
												OFFSET -2.9000 0.0000 0.0000
											}
										}
									}
								}
							}
						}
					}
				}
			}
		}
	}
	JOINT LeftUpLeg
	{
		OFFSET	9.6338	-3.2733	0.0000
		CHANNELS 3 Xrotation Yrotation Zrotation
		JOINT LeftLeg
		{
			OFFSET	0.0000	-41.7300	-1.7300
			CHANNELS 3 Xrotation Yrotation Zrotation
			JOINT LeftFoot
			{
				OFFSET	0.0126	-39.1900	-0.8477
				CHANNELS 3 Xrotation Yrotation Zrotation
				JOINT LeftToeBase
				{
					OFFSET	-0.1833	-12.1931	8.2823
					CHANNELS 3 Xrotation Yrotation Zrotation
					End Site
					{
						OFFSET 0.0000 0.0000 10.1681
					}
				}
			}
		}
	}
	JOINT RightUpLeg
	{
		OFFSET	-9.6338	-3.2733	0.0000
		CHANNELS 3 Xrotation Yrotation Zrotation
		JOINT RightLeg
		{
			OFFSET	0.0000	-41.7300	-1.7300
			CHANNELS 3 Xrotation Yrotation Zrotation
			JOINT RightFoot
			{
				OFFSET	0.0126	-39.1900	-0.8477
				CHANNELS 3 Xrotation Yrotation Zrotation
				JOINT RightToeBase
				{
					OFFSET	-0.1833	-12.1931	8.2823
					CHANNELS 3 Xrotation Yrotation Zrotation
					End Site
					{
						OFFSET 0.0032 0.0000 10.1681
					}
				}
			}
		}
	}
}
MOTION
Frames: 4
Frame Time: 0.0333333
0.4552 89.2002 -1.4659 -26.3233 9.9403 -1.5711 1.6360 -0.4156 -0.1749 3.3081 -0.7049 0.3328 3.3042 -0.7092 0.3329 10.6971 3.6854 -6.0752 -0.0000 0.0000 -0.0000 3.7996 18.9671 -8.7246 -9.6041 4.1160 -14.5848 -55.9798 -39.5278 -55.1118 0.0000 -0.0000 -106.8085 -14.3791 -29.2608 -16.0671 -23.4759 10.9895 29.5986 -0.5413 -1.4887 54.3647 8.0088 0.8033 27.0444 -99.5151 1.0629 1.4458 -95.4590 -1.1118 1.0106 -47.7220 -0.3323 0.7512 -99.5312 1.0624 1.4463 -95.4429 -1.1116 1.0107 -47.7220 -0.3323 0.7512 -99.5312 1.0624 1.4463 -95.4429 -1.1116 1.0107 -47.7220 -0.3323 0.7512 -99.4382 1.0681 5.5298 -95.5424 2.9549 1.4017 -47.7220 -0.3323 0.7512 2.3181 5.4816 30.3947 48.5193 -20.6840 46.9000 -0.0000 0.0001 101.5360 6.9423 11.8037 9.8505 25.3590 38.1514 -25.0307 58.7503 39.8532 -70.4341 -8.1455 28.3893 -19.7826 94.7275 -0.3142 -2.5054 97.8088 -2.5953 -2.2638 48.9065 -0.7830 -1.7218 94.7275 -0.3142 -2.5054 97.8088 -2.5953 -2.2638 48.9065 -0.7830 -1.7218 94.7275 -0.3142 -2.5054 97.8088 -2.5953 -2.2638 48.9065 -0.7830 -1.7218 94.7275 -0.3142 -2.5054 97.8088 -2.5953 -2.2638 48.9065 -0.7830 -1.7218 -38.5710 8.7894 24.9407 39.0584 -7.8949 -6.0765 -8.1918 21.5873 -9.4546 -0.0038 -0.0000 0.0000 -31.5086 -1.8805 -13.3002 39.5263 -6.0923 -2.7388 -18.5851 7.8930 16.3643 -0.0029 0.0000 -0.0000 
0.8511 88.6653 -1.7552 -27.0902 11.5083 -1.6858 1.7700 -0.7009 -0.2944 3.5001 -1.1892 0.4337 3.4967 -1.1955 0.4338 10.1321 4.0372 -6.4251 -0.0000 0.0000 -0.0000 2.1080 20.7690 -9.0312 -9.0966 4.1138 -15.4640 -59.5303 -41.1527 -59.7055 -0.0000 0.0000 -107.4928 -15.0473 -28.0376 -16.7103 -23.4759 10.9895 29.5986 -0.5413 -1.4887 54.3647 8.0088 0.8033 27.0444 -99.5151 1.0629 1.4458 -95.4590 -1.1118 1.0106 -47.7220 -0.3323 0.7512 -99.5312 1.0624 1.4464 -95.4429 -1.1116 1.0107 -47.7220 -0.3323 0.7512 -99.5312 1.0624 1.4464 -95.4429 -1.1116 1.0107 -47.7220 -0.3323 0.7512 -99.4382 1.0681 5.5298 -95.5424 2.9549 1.4017 -47.7220 -0.3323 0.7512 2.2304 5.6839 31.2406 55.0018 -26.8353 47.2230 0.0000 0.0001 97.3874 10.1945 10.5514 8.7232 25.3590 38.1514 -25.0308 58.7502 39.8532 -70.4341 -8.1455 28.3893 -19.7826 94.7275 -0.3142 -2.5054 97.8088 -2.5953 -2.2638 48.9065 -0.7830 -1.7218 94.7275 -0.3142 -2.5054 97.8088 -2.5953 -2.2638 48.9065 -0.7830 -1.7218 94.7275 -0.3142 -2.5054 97.8088 -2.5953 -2.2638 48.9065 -0.7830 -1.7218 94.7275 -0.3142 -2.5054 97.8088 -2.5953 -2.2638 48.9065 -0.7830 -1.7218 -41.2986 8.4562 25.6167 41.1970 -7.9377 -6.6185 -9.3438 20.8571 -8.8338 -0.3120 -0.0000 -0.0000 -34.4237 -0.4915 -13.0349 41.5135 -7.4416 -2.6681 -19.2604 8.9637 16.4937 -0.0028 -0.0000 0.0000 
1.4275 88.0279 -1.9571 -22.7047 13.4950 -1.4626 1.8379 -1.3100 -0.1416 3.7713 -2.3402 0.6738 3.7685 -2.3471 0.6753 9.5680 4.0999 -6.4642 -0.0000 0.0000 -0.0000 0.2129 21.1810 -9.2366 -8.6231 4.0283 -16.2970 -61.2950 -41.4882 -63.3593 0.0000 0.0000 -108.0216 -15.6093 -25.5972 -17.2416 -23.4759 10.9895 29.5986 -0.5413 -1.4887 54.3647 8.0088 0.8033 27.0444 -99.5151 1.0629 1.4458 -95.4590 -1.1118 1.0106 -47.7220 -0.3323 0.7512 -99.5312 1.0625 1.4463 -95.4429 -1.1116 1.0107 -47.7220 -0.3323 0.7512 -99.5312 1.0625 1.4463 -95.4429 -1.1116 1.0107 -47.7220 -0.3323 0.7512 -99.4382 1.0681 5.5298 -95.5424 2.9549 1.4017 -47.7220 -0.3323 0.7512 3.2875 5.7404 28.8103 61.7427 -33.8733 46.6751 0.0000 -0.0000 90.8996 13.3196 9.3024 6.4152 25.3590 38.1514 -25.0307 58.7503 39.8532 -70.4341 -8.1455 28.3893 -19.7826 94.7275 -0.3142 -2.5054 97.8088 -2.5953 -2.2638 48.9065 -0.7830 -1.7218 94.7275 -0.3142 -2.5054 97.8088 -2.5953 -2.2638 48.9065 -0.7830 -1.7218 94.7275 -0.3142 -2.5054 97.8088 -2.5953 -2.2638 48.9065 -0.7830 -1.7218 94.7275 -0.3142 -2.5054 97.8088 -2.5953 -2.2638 48.9065 -0.7830 -1.7218 -45.8802 6.2341 23.7845 43.9167 -7.8994 -6.0431 -9.2047 18.4133 -7.9551 -0.8203 0.0000 -0.0000 -36.4985 -1.0652 -15.0157 44.1017 -8.5322 -0.8907 -20.5923 7.7557 16.1402 -0.0025 -0.0000 -0.0000 
0.9259 87.6924 -1.5174 -9.7676 14.0790 -0.1684 1.9634 -1.7352 0.2738 3.9290 -3.2773 1.0337 3.9280 -3.2844 1.0329 9.5808 3.0581 -5.5728 -0.0000 0.0000 -0.0000 -0.7758 16.2652 -8.5007 -8.2368 3.9618 -16.8480 -58.3788 -40.3835 -61.9115 -0.0000 0.0000 -109.2717 -15.8644 -22.3485 -18.1941 -23.4759 10.9895 29.5986 -0.5413 -1.4887 54.3647 8.0088 0.8033 27.0444 -99.5151 1.0629 1.4458 -95.4590 -1.1118 1.0106 -47.7220 -0.3323 0.7512 -99.5312 1.0624 1.4464 -95.4429 -1.1116 1.0107 -47.7220 -0.3323 0.7512 -99.5312 1.0624 1.4464 -95.4429 -1.1116 1.0107 -47.7220 -0.3323 0.7512 -99.4382 1.0681 5.5298 -95.5424 2.9549 1.4017 -47.7220 -0.3323 0.7512 5.0315 4.3001 19.0639 62.1357 -39.9766 41.7791 -0.0000 -0.0000 84.7377 15.3239 8.7310 2.7900 25.3590 38.1514 -25.0307 58.7503 39.8532 -70.4341 -8.1455 28.3893 -19.7826 94.7275 -0.3142 -2.5054 97.8088 -2.5953 -2.2638 48.9065 -0.7830 -1.7218 94.7275 -0.3142 -2.5054 97.8088 -2.5953 -2.2638 48.9065 -0.7830 -1.7218 94.7275 -0.3142 -2.5054 97.8088 -2.5953 -2.2638 48.9065 -0.7830 -1.7218 94.7275 -0.3142 -2.5054 97.8088 -2.5953 -2.2638 48.9065 -0.7830 -1.7218 -48.6487 3.1121 17.9219 43.3824 -8.3456 -3.8814 -7.8361 12.4474 -7.4414 -0.3504 -0.0000 -0.0000 -33.4752 -3.4727 -16.9814 46.6080 -9.9153 0.4283 -23.7574 0.2260 14.5674 -0.5043 -0.0000 -0.0000 
